# xmcd
#
# Track frame offsets: 
#        150
#        14352
#        34827
#        52130
#        68812
#        86120
#        95865
#        113692
#        129302
#        141135
#        156120
#        168877
#        180440
#        193967
#        211122
#        222367
#        234985
#        247475
#        258860
#        269050
#        287607
#
# Disc length: 4119 seconds
#
# Revision: 0
# Processed by: cddbd v1.4PL0 Copyright (c) Steve Scherf et al.
# Submitted via: ExactAudioCopy v0.90b4
#
DISCID=3d101515
DTITLE=Schaefer und seine Freunde - So sin die Mannemer...
DYEAR=1900
DGENRE=Folk
TTITLE0=Schaefer - So sin die Mannemer
TTITLE1=Schaefer-Bux - De Filzbachstomb
TTITLE2=B.Kaiser - S'werd doch nix passiert soi
TTITLE3=Schaefer - Isch bin en eschder Mannemer
TTITLE4=Dr.F.  Biedermann - Blumepeter-Lied
TTITLE5=Schaefer-Bux - Wasserturm-Boogie
TTITLE6=Schoierer - Mit unsre wacklische Knie
TTITLE7=W.Albiez - Quadrate-Lied
TTITLE8=B.Kaiser - In Mannem
TTITLE9=Schaefer-Bux - Hey, Unkel Willi
TTITLE10=B.Kaiser - Meine Alte
TTITLE11=Wilsh Deighan - Oh, Mannem is schae
TTITLE12=Dr. F. Biedermann - Mir liewe unser Mannem
TTITLE13=Dr. F. Biedermann - Mannemer Marsch
TTITLE14=Schaefer-Bux - Mir hawwe zwee linke Haend
TTITLE15=B.Kaiser - Maedel mach kae Faerz
TTITLE16=Schaefer - Mensch Meier Mannem
TTITLE17=Schaefer - Pudelnaggisch
TTITLE18=Schaefer - Ja, mir sin die Stromer
TTITLE19=Schaefer - Wo ist der Kuesser
TTITLE20=Schaefer - Des weess isch noch
EXTD=
EXTT0=
EXTT1=
EXTT2=
EXTT3=
EXTT4=
EXTT5=
EXTT6=
EXTT7=
EXTT8=
EXTT9=
EXTT10=
EXTT11=
EXTT12=
EXTT13=
EXTT14=
EXTT15=
EXTT16=
EXTT17=
EXTT18=
EXTT19=
EXTT20=
PLAYORDER=
